# xmcd
#
# Track frame offsets:
#	150
#	14960
#	28765
#	47062
#	64633
#	79073
#	96191
#	115995
#	129418
#	142310
#	160482
#	175312
#	191995
#	211401
#	227342
#	242091
#	254176
#	265558
#	280540
#
# Disc length: 3973
#
# Revision: 1
# Processed by: cddbd v1.5.1PL0 Copyright (c) Steve Scherf et al.
# Submitted via: dBpowerAMP V4.0
# Normalized: r0:TRMNUM
#
DISCID=1d0f8313
DTITLE=Paradão Sertanejo 2004 - Paradão Sertanejo 2004
DYEAR=2004
DGENRE=Sertanejo
TTITLE0=Aconteceu comigo - Deley e Dorivan
TTITLE1=Mulher chorona - Teodoro e Sampaio
TTITLE2=Vai da namoro - Bruno e Marrone
TTITLE3=Pra mudar minha vida - Zezé di Camargo e Luciano
TTITLE4=Folha seca - Adalberto e Adriano
TTITLE5=Mistério - Mato Grosso e Matias
TTITLE6=Eu sei que te perdi - Leonardo
TTITLE7=Amor de rapariga - Cheiro de forró
TTITLE8=É mentira dela - Teodoro e Sampaio
TTITLE9=Aqueles olhos - Cezar e Paulinho
TTITLE10=Te quero pra mim - Edson e Hudson
TTITLE11=Fragmento de amor - Rob e Roger
TTITLE12=Nunca mais vou te esquecer - Goiano e Paranaense
TTITLE13=Paixão desenfreada - Ronaldo Viola e Praiano
TTITLE14=Mexe que mexe - Zezé di Camargo e Luciano
TTITLE15=Comendo poeira - Adalberto e Adriano
TTITLE16=O amor se vai - Leonardo
TTITLE17=Vai chover mulher - Teodoro e Sampaio
TTITLE18=Separador - Rob e Roger
EXTD=
EXTT0=
EXTT1=
EXTT2=
EXTT3=
EXTT4=
EXTT5=
EXTT6=
EXTT7=
EXTT8=
EXTT9=
EXTT10=
EXTT11=
EXTT12=
EXTT13=
EXTT14=
EXTT15=
EXTT16=
EXTT17=
EXTT18=
PLAYORDER=
